# xmcd
#
# Track frame offsets: 
#        150
#        12678
#        30608
#        43970
#        63313
#        76073
#        92415
#        108669
#        128054
#        145201
#        163957
#        178274
#        189028
#        205281
#
# Disc length: 2954 seconds
#
# Revision: 1
# Processed by: cddbd v1.5.2PL0 Copyright (c) Steve Scherf et al.
# Submitted via: ExactAudioCopyFreeDBPlugin 1.0
#
DISCID=c10b880e
DTITLE=Nashville Tribute Band - Redeemer A Nashville Tribute To Jesus 
DTITLE=Christ
DYEAR=2014
DGENRE=Gospel
TTITLE0=He is Coming
TTITLE1=John's Song
TTITLE2=Blind
TTITLE3=What Manner of Man is This?
TTITLE4=The One
TTITLE5=Tears on His Feet
TTITLE6=What a Saint Should Be
TTITLE7=Pilate's Wife
TTITLE8=Soldier and the Thief
TTITLE9=Peter (Wide Awake)
TTITLE10=He Is Risen
TTITLE11=Apostles
TTITLE12=When the Son of Man (Comes Again)
TTITLE13=The Greatest Story
EXTD=
EXTT0=
EXTT1=
EXTT2=
EXTT3=
EXTT4=
EXTT5=
EXTT6=
EXTT7=
EXTT8=
EXTT9=
EXTT10=
EXTT11=
EXTT12=
EXTT13=
PLAYORDER=
